<?xml version="1.0" encoding="UTF-8" ?>
<!DOCTYPE svg PUBLIC "-//W3C//DTD SVG 1.1//EN" "http://www.w3.org/Graphics/SVG/1.1/DTD/svg11.dtd">
<svg width="518pt" height="202pt" viewBox="0 0 518 202" version="1.1" xmlns="http://www.w3.org/2000/svg">
<g id="#cb3837ff">
<path fill="#cb3837" opacity="1.00" d=" M 0.00 0.00 L 518.00 0.00 L 518.00 173.00 C 431.67 173.01 345.34 172.98 259.02 173.01 C 258.99 182.67 258.98 192.34 258.99 202.00 L 144.01 202.00 C 144.02 192.33 144.01 182.67 143.98 173.01 C 95.99 172.98 47.99 173.01 0.00 173.00 L 0.00 0.00 M 29.01 29.01 C 28.99 67.34 28.99 105.66 29.01 143.99 C 48.00 144.02 66.99 144.01 85.99 143.99 C 86.03 115.33 85.97 86.66 86.01 58.00 C 95.67 57.99 105.33 58.01 114.99 58.00 C 115.03 86.67 114.97 115.33 115.01 144.00 C 124.67 144.01 134.33 144.00 143.99 144.00 C 144.01 105.67 144.01 67.34 143.99 29.01 C 105.66 28.99 67.34 28.99 29.01 29.01 M 173.01 29.01 C 172.99 77.00 173.00 125.00 173.01 172.99 C 192.33 173.02 211.66 173.02 230.99 172.99 C 231.01 163.33 230.99 153.67 231.02 144.01 C 250.01 144.00 269.00 143.99 287.99 143.99 C 288.01 105.67 288.01 67.34 287.99 29.01 C 249.66 28.99 211.33 28.99 173.01 29.01 M 317.01 29.01 C 316.99 67.34 316.99 105.66 317.01 143.99 C 336.00 144.02 354.99 144.01 373.99 143.99 C 374.03 115.33 373.97 86.66 374.01 58.00 C 383.67 57.99 393.32 58.01 402.99 58.00 C 403.03 86.67 402.97 115.33 403.01 144.00 C 412.67 144.01 422.32 143.99 431.99 144.00 C 432.03 115.33 431.97 86.67 432.01 58.00 C 441.67 57.99 451.32 58.01 460.99 58.00 C 461.03 86.67 460.97 115.33 461.01 144.00 C 470.67 144.01 480.32 144.00 489.99 144.00 C 490.01 105.67 490.00 67.34 489.99 29.01 C 432.33 29.00 374.67 28.99 317.01 29.01 Z" />
<path fill="#cb3837" opacity="1.00" d=" M 231.01 58.00 C 240.33 57.99 249.66 57.99 258.99 58.00 C 259.01 77.00 259.02 96.00 258.99 115.00 C 249.66 115.01 240.33 115.01 231.01 115.00 C 230.98 96.00 230.98 77.00 231.01 58.00 Z" />
</g>
<g id="#ffffffff">
<path fill="#ffffff" opacity="1.00" d=" M 29.01 29.01 C 67.34 28.99 105.66 28.99 143.99 29.01 C 144.01 67.34 144.01 105.67 143.99 144.00 C 134.33 144.00 124.67 144.01 115.01 144.00 C 114.97 115.33 115.03 86.67 114.99 58.00 C 105.33 58.01 95.67 57.99 86.01 58.00 C 85.97 86.66 86.03 115.33 85.99 143.99 C 66.99 144.01 48.00 144.02 29.01 143.99 C 28.99 105.66 28.99 67.34 29.01 29.01 Z" />
<path fill="#ffffff" opacity="1.00" d=" M 173.01 29.01 C 211.33 28.99 249.66 28.99 287.99 29.01 C 288.01 67.34 288.01 105.67 287.99 143.99 C 269.00 143.99 250.01 144.00 231.02 144.01 C 230.99 153.67 231.01 163.33 230.99 172.99 C 211.66 173.02 192.33 173.02 173.01 172.99 C 173.00 125.00 172.99 77.00 173.01 29.01 M 231.01 58.00 C 230.98 77.00 230.98 96.00 231.01 115.00 C 240.33 115.01 249.66 115.01 258.99 115.00 C 259.02 96.00 259.01 77.00 258.99 58.00 C 249.66 57.99 240.33 57.99 231.01 58.00 Z" />
<path fill="#ffffff" opacity="1.00" d=" M 317.01 29.01 C 374.67 28.99 432.33 29.00 489.99 29.01 C 490.00 67.34 490.01 105.67 489.99 144.00 C 480.32 144.00 470.67 144.01 461.01 144.00 C 460.97 115.33 461.03 86.67 460.99 58.00 C 451.32 58.01 441.67 57.99 432.01 58.00 C 431.97 86.67 432.03 115.33 431.99 144.00 C 422.32 143.99 412.67 144.01 403.01 144.00 C 402.97 115.33 403.03 86.67 402.99 58.00 C 393.32 58.01 383.67 57.99 374.01 58.00 C 373.97 86.66 374.03 115.33 373.99 143.99 C 354.99 144.01 336.00 144.02 317.01 143.99 C 316.99 105.66 316.99 67.34 317.01 29.01 Z" />
</g>
</svg>
