<?xml version="1.0" encoding="utf-8"?>
<!-- Generator: Adobe Illustrator 18.1.0, SVG Export Plug-In . SVG Version: 6.00 Build 0)  -->
<!DOCTYPE svg PUBLIC "-//W3C//DTD SVG 1.1//EN" "http://www.w3.org/Graphics/SVG/1.1/DTD/svg11.dtd">
<svg version="1.1" id="Layer_1" xmlns="http://www.w3.org/2000/svg" xmlns:xlink="http://www.w3.org/1999/xlink" x="0px" y="0px"
	 viewBox="0 0 747.2 182.2" enable-background="new 0 0 747.2 182.2" xml:space="preserve">
<g>
	<path fill-rule="evenodd" clip-rule="evenodd" fill="#FFFFFF" d="M40,25.9c3.2-1.9,6.6-3.6,10.2-5.1c7.5-3.1,15.1-5,23-5.8l8.6,9.8
		l-3.9,10c-7.7,1.5-15,4.3-21.8,8.4c-0.5,0.3-1,0.6-1.5,0.9L53.2,31L40,25.9z"/>
	<path fill-rule="evenodd" clip-rule="evenodd" fill="#FFFFFF" d="M36.3,28.2l13.6,5.3l1.4,13c-7.4,5.4-13.1,12.3-17.2,20.7
		c-0.4,0.7-0.7,1.5-1,2.3l-9.5-11.6L8,61.2c3.9-8.4,9.1-15.9,15.7-22.5C27.5,34.7,31.8,31.3,36.3,28.2z"/>
	<path fill-rule="evenodd" clip-rule="evenodd" fill="#FFFFFF" d="M125.8,119.8c1.5-2.5,2.7-5,3.6-7.5l14.7,17.8l24.7-5.3
		c-1.4,3.9-3.1,7.7-5,11.4c-5.1,9.8-11.8,18.3-20.1,25.5c-8.4,7.3-18,12.7-28.6,16c-0.2,0.1-0.4,0.1-0.6,0.2l-18.3-15.5l4.8-21.1
		c0.1,0,0.2-0.1,0.4-0.1C111.8,136.8,119.9,129.6,125.8,119.8z"/>
	<path fill-rule="evenodd" clip-rule="evenodd" fill="#FFFFFF" d="M156.7,36.4c1.5,2.1,2.9,4.2,4.3,6.5c5.6,9.5,9.5,19.6,11.7,30.4
		c2.1,10.7,2.4,21.5,0.9,32.3c-0.7,5.2-1.9,10.3-3.4,15.2l-24.7,5.3l-14.8-17.9c1.8-6.6,1.9-13.4,0.5-20.6
		c-1.7-8.5-5.4-15.7-11.1-21.7l26.7-3.2L156.7,36.4z"/>
	<path fill-rule="evenodd" clip-rule="evenodd" fill="#FFFFFF" d="M6.2,65.1l15.9-3.4l9.4,11.5C28.7,81.5,28,90,29.4,98.9
		c0.4,2.5,1,5,1.7,7.4l-16.8-3.8L2.2,116.7C0.7,110.4,0,103.9,0,97.3c0-11,2.1-21.6,6.1-31.9C6.2,65.3,6.2,65.2,6.2,65.1z"/>
	<path fill-rule="evenodd" clip-rule="evenodd" fill="#FFFFFF" d="M32.4,110.2c2.4,6.4,6,12.3,10.7,17.6c3.6,4,7.5,7.4,11.9,10
		l-16.7,9.6l0.9,21.8c-5.5-3.4-10.6-7.5-15.2-12.3c-7.7-7.9-13.7-17.1-17.8-27.4c-1.1-2.8-2.1-5.7-2.9-8.5l12.3-14.6L32.4,110.2z"/>
	<path fill-rule="evenodd" clip-rule="evenodd" fill="#FFFFFF" d="M58.6,139.8c3.6,1.8,7.4,3.2,11.5,4.1c9.2,2.1,18.1,1.8,26.8-1.1
		l-4.8,20.9l18.1,15.3c-9.1,2.4-18.3,3.4-27.8,3c-11-0.4-21.6-2.7-31.8-7c-2.7-1.2-5.4-2.4-7.9-3.9l-0.9-21.9L58.6,139.8z"/>
	<path fill-rule="evenodd" clip-rule="evenodd" fill="#FFFFFF" d="M154.2,33.1l-10,26.5l-27.4,3.2c-0.8-0.7-1.6-1.4-2.5-2
		c-9-6.8-19.1-10.8-30.4-11.9c-2.6-0.2-5.1-0.3-7.5-0.2l9.6-24.5L65.3,0.6c6.2-0.5,12.4-0.7,18.6-0.5c3.7,0.1,7.4,0.4,11.1,0.9
		c5.2,0.7,10.3,1.7,15.3,3.1c10.7,3,20.4,7.9,29.2,14.6C145,22.9,149.9,27.7,154.2,33.1z"/>
	<g id="Colour_8_">
	</g>
</g>
<g>
	<path fill="#FFFFFF" d="M245.4,99.7h-19.5l-4.9,24.7h22.4l-2.9,14.7h-38.8l17-89h37.2L253,64.6h-20.5l-4.4,21.1h19.9L245.4,99.7z"
		/>
	<path fill="#FFFFFF" d="M260.1,139l-2.8-89h18.4l-1.2,45c-0.3,8.1-0.8,18.4-1.3,25.2h0.3c1.8-6.9,4.9-17.3,7.7-25.2l16-45h18.2
		l-37.2,89H260.1z"/>
	<path fill="#FFFFFF" d="M345.4,99.7h-19.5l-4.9,24.7h22.5l-2.9,14.7h-38.8l17-89h37.2L353,64.6h-20.5l-4.4,21.1h19.9L345.4,99.7z"
		/>
	<path fill="#FFFFFF" d="M349,139l17-89h15.1l6.9,35.4c2.2,11.7,3.7,20.2,4.4,27.6h0.3c1.2-9.8,2.8-25.1,5.5-39.9l4.4-23.1h14.3
		l-17,89h-14.1l-7.1-33.1c-2.8-12.4-3.6-18.5-4.5-29.6h-0.3c-1.2,9-3.2,23.6-6.1,39.1l-4.5,23.6H349z"/>
	<path fill="#FFFFFF" d="M432.3,65.6h-15.5l3-15.6h47.4l-3,15.6h-15.5l-14,73.4h-16.5L432.3,65.6z"/>
	<path fill="#FFFFFF" d="M477.2,122.1c2.9,1.7,7.5,3,12.3,3c7.5,0.3,12.8-4.4,12.8-11.4c0-5.9-3.3-9.4-8.8-14.9
		c-7-6.6-10.6-13.7-10.6-21.5c0-16.5,11.6-28.1,29-28.1c6.9,0,11.2,1.5,13.3,2.8l-4.5,14.3c-2.6-1.5-5.5-2.4-9.6-2.4
		c-7,0-11.8,4.5-11.9,11.4c0,4.2,1.7,7.5,8.8,13.9c7.3,6.5,10.7,14.3,10.7,21.4c0,18.5-12.3,29.3-29.2,29.3c-8.8,0-14.5-2-16.6-3.3
		L477.2,122.1z"/>
	<path fill="#FFFFFF" d="M541.2,65.6h-15.5l3-15.6h47.4l-3,15.6h-15.5l-14,73.4h-16.5L541.2,65.6z"/>
	<path fill="#FFFFFF" d="M625.1,77.2c0,18.9-6.2,42.7-18,54.4c-5.5,5.5-11.9,8.5-19.7,8.5c-19.3,0-22-19.3-22-29
		c0-18.1,6.2-41.9,18.5-53.9c5.3-5.1,11.8-8.2,19.5-8.2C622.7,49,625.1,66.7,625.1,77.2z M595.2,66.3c-8.2,8.3-12.8,33.1-12.8,46.4
		c0,5,0.7,12.9,7.5,12.9c1.9,0,3.8-0.9,5.4-2.6c8.8-8.7,12.7-37.4,12.7-47c0-5.7-0.8-12.4-6.9-12.4
		C599.1,63.5,597.1,64.4,595.2,66.3z"/>
	<path fill="#FFFFFF" d="M639.4,51.2c5.5-0.9,11.8-1.6,17.7-1.6c7.7,0,15.1,1.5,19.7,6.1c3.7,3.7,5.8,8.8,5.8,14.7
		c0,13.1-7.9,23.5-18.1,26.9v0.3c4.9,2.2,7,7.4,7.3,17.3c0.3,9.9,0.5,20.9,1.5,24.2h-16.6c-0.4-2.5-0.7-11.5-0.7-21.3
		c0-10.8-2.2-14.4-7.8-14.4h-2.8l-6.6,35.7h-16.1L639.4,51.2z M648,90.6h3.8c8.3,0,13.9-8.8,13.9-18.2c0-4.8-2-9.8-8.2-9.8
		c-1.7,0-3.3,0.1-4.4,0.4L648,90.6z"/>
	<path fill="#FFFFFF" d="M722.7,99.7h-19.5l-4.9,24.7h22.4l-2.9,14.7H679l17-89h37.2l-2.9,14.5h-20.5l-4.4,21.1h19.9L722.7,99.7z"/>
</g>
<g>
	<path fill="#FFFFFF" d="M745.1,137.1c-1.3,1.3-2.9,1.9-4.8,1.9c-1.9,0-3.5-0.7-4.9-2c-1.3-1.3-2-2.9-2-4.9c0-2,0.7-3.7,2.1-5
		c1.3-1.2,2.9-1.9,4.7-1.9c1.9,0,3.5,0.7,4.8,2c1.3,1.3,2,2.9,2,4.8C747.2,134.1,746.5,135.8,745.1,137.1z M736.3,128.2
		c-1.1,1.1-1.6,2.4-1.6,4c0,1.6,0.6,2.9,1.7,4c1.1,1.1,2.4,1.7,4,1.7c1.6,0,2.9-0.6,4-1.7c1.1-1.1,1.7-2.5,1.7-4
		c0-1.5-0.5-2.8-1.6-4c-1.1-1.1-2.4-1.7-4-1.7C738.7,126.5,737.4,127.1,736.3,128.2z M737.3,136v-7.6c0.5,0,1.2,0,2.1,0
		c0.9,0,1.5,0,1.6,0c0.6,0,1.1,0.2,1.5,0.4c0.7,0.4,1,1,1,1.8c0,0.6-0.2,1.1-0.5,1.4c-0.4,0.3-0.8,0.5-1.3,0.5
		c0.5,0.1,0.8,0.2,1.1,0.4c0.4,0.4,0.7,0.9,0.7,1.7v0.7c0,0.1,0,0.1,0,0.2c0,0.1,0,0.1,0.1,0.2l0.1,0.2h-1.9c-0.1-0.2-0.1-0.6-0.1-1
		c0-0.5-0.1-0.8-0.1-0.9c-0.1-0.3-0.3-0.5-0.6-0.6c-0.1-0.1-0.4-0.1-0.7-0.1l-0.4,0h-0.4v2.7H737.3z M740.9,129.9
		c-0.3-0.1-0.7-0.2-1.2-0.2h-0.5v2.2h0.8c0.5,0,0.8-0.1,1.1-0.3c0.3-0.2,0.4-0.5,0.4-0.9C741.6,130.4,741.3,130.1,740.9,129.9z"/>
</g>
</svg>
