<?xml version="1.0" encoding="UTF-8" standalone="no"?><svg xmlns="http://www.w3.org/2000/svg" height="486px" viewBox="0 0 647.963 486" width="647.96px" version="1.1" y="0px" x="0px">
 <g font-size="12.4375" font-family="Arial" font-weight="bold">  <rect height="485" width="646.96" stroke="#000" y="0.5" x="0.5" fill="#FFF"/>
  <path stroke="#29AAE2" stroke-width="2" d="M76.786,399.52l31.444-6.396,31.443-5.01,31.444-3.088,31.443-2.072s62.887-1.359,376.79-1.359" fill="none"/>
  <path stroke="#ED1C24" stroke-width="2" d="M76.786,399.28l31.443-11.594,31.443-12.18,31.443-11.498,31.442-8.389,31.45-4.93,31.443-3.152,31.444-1.814s125.78-1.236,283.51-1.236" fill="none"/>
  <path stroke="#8D5CA6" stroke-width="2" d="M76.786,399.06l31.443-15.584,31.442-22.629,31.441-30.23,31.439-32.129,31.44-25.48,31.442-17.707,31.443-10.451,31.444-6.089,31.443-3.066,31.443-1.122s155.65-1.387,189.19-1.387" fill="none"/>
  <path stroke="#00A651" stroke-width="2" d="M580.4,47.664c-45.817-0.11-126.32,0.992-126.32,0.992l-31.444,1.533-31.443,4.343-31.442,6.082-31.442,12.632-31.442,21.485-31.438,37.513-31.44,53.099-31.438,61.432-31.436,60.614-31.44,46.057-31.441,28.117-31.443,17.262" fill="none"/>
  <text transform="matrix(1.001 0 0 1 36.6182 50.9023)">
   <tspan y="0" x="0">20.00</tspan>
   <tspan y="37.105" x="0">18.00</tspan>
   <tspan y="74.21" x="0">16.00</tspan>
   <tspan y="111.315" x="0">14.00</tspan>
   <tspan y="148.42" x="0">12.00</tspan>
   <tspan y="185.526" x="0">10.00</tspan>
   <tspan y="222.63" x="6.917">8.00</tspan>
   <tspan y="259.736" x="6.917">6.00</tspan>
   <tspan y="296.841" x="6.917">4.00</tspan>
   <tspan y="333.947" x="6.917">2.00</tspan>
   <tspan y="371.051" x="6.917">0.00</tspan>
  </text>
  <text transform="matrix(4.489659e-11 -0.999 1 4.485185e-11 27.4873 259.7915)">Speedup</text>
  <text transform="matrix(4.489659e-11 -0.999 1 4.485185e-11 80.9746 431.7759)">
   <tspan y="0" x="0">1</tspan>
   <tspan y="31.436" x="0">2</tspan>
   <tspan y="62.872" x="0">4</tspan>
   <tspan y="94.308" x="0">8</tspan>
   <tspan y="125.744" x="-6.924">16</tspan>
   <tspan y="157.18" x="-6.924">32</tspan>
   <tspan y="188.616" x="-6.924">64</tspan>
   <tspan y="220.052" x="-13.848">128</tspan>
   <tspan y="251.487" x="-13.848">256</tspan>
   <tspan y="282.924" x="-13.848">512</tspan>
   <tspan y="314.359" x="-20.773">1024</tspan>
   <tspan y="345.796" x="-20.773">2048</tspan>
   <tspan y="377.231" x="-20.773">4096</tspan>
   <tspan y="408.668" x="-20.773">8192</tspan>
   <tspan y="440.104" x="-27.697">16384</tspan>
   <tspan y="471.54" x="-27.697">32768</tspan>
   <tspan y="502.976" x="-27.697">65536</tspan>
  </text>
  <text transform="matrix(1.001 0 0 1 260.1895 474.6782)">Number of Processors</text>
  <line y2="47.664" x2="580.4" stroke="#000" y1="47.664" x1="73.098"/>
  <line y2="84.767" x2="580.4" stroke="#000" y1="84.767" x1="73.098"/>
  <line y2="121.87" x2="580.4" stroke="#000" y1="121.87" x1="73.098"/>
  <line y2="158.98" x2="580.4" stroke="#000" y1="158.98" x1="73.098"/>
  <line y2="196.08" x2="580.4" stroke="#000" y1="196.08" x1="73.098"/>
  <line y2="233.18" x2="580.4" stroke="#000" y1="233.18" x1="73.098"/>
  <line y2="270.28" x2="580.4" stroke="#000" y1="270.28" x1="73.098"/>
  <line y2="307.39" x2="580.4" stroke="#000" y1="307.39" x1="73.098"/>
  <line y2="344.49" x2="580.4" stroke="#000" y1="344.49" x1="73.098"/>
  <line y2="381.59" x2="580.4" stroke="#000" y1="381.59" x1="73.098"/>
  <line y2="418.69" x2="580.4" stroke="#000" y1="418.69" x1="73.098"/>
  <line y2="424.51" x2="76.789" stroke="#000" y1="47.167" x1="76.751"/>
  <line y2="424.51" x2="108.23" stroke="#000" y1="47.167" x1="108.2"/>
  <line y2="424.51" x2="139.68" stroke="#000" y1="47.167" x1="139.64"/>
  <line y2="424.51" x2="171.12" stroke="#000" y1="47.167" x1="171.08"/>
  <line y2="424.51" x2="202.56" stroke="#000" y1="47.167" x1="202.53"/>
  <line y2="424.51" x2="234.01" stroke="#000" y1="47.167" x1="233.97"/>
  <line y2="424.51" x2="265.45" stroke="#000" y1="47.167" x1="265.41"/>
  <line y2="424.51" x2="296.89" stroke="#000" y1="47.167" x1="296.86"/>
  <line y2="424.51" x2="328.34" stroke="#000" y1="47.167" x1="328.3"/>
  <line y2="424.51" x2="359.78" stroke="#000" y1="47.167" x1="359.74"/>
  <line y2="424.51" x2="391.23" stroke="#000" y1="47.167" x1="391.19"/>
  <line y2="424.51" x2="422.67" stroke="#000" y1="47.167" x1="422.63"/>
  <line y2="424.51" x2="454.11" stroke="#000" y1="47.167" x1="454.08"/>
  <line y2="424.51" x2="485.56" stroke="#000" y1="47.167" x1="485.52"/>
  <line y2="424.51" x2="517" stroke="#000" y1="47.167" x1="516.96"/>
  <line y2="424.51" x2="548.44" stroke="#000" y1="47.167" x1="548.41"/>
  <line y2="424.51" x2="579.91" stroke="#000" y1="47.167" x1="579.88"/>
  <text font-size="14.5104" transform="matrix(1.001 0 0 1 283.5503 28.2241)">Amdahl’s Law</text>
  <rect height="103.83" width="134.35" y="88.17" x="403.24" fill="#FFF"/>
  <text font-size="14.5104" transform="matrix(1.001 0 0 1 419.7627 107.5015)">
   <tspan y="0" x="0">Parallel Portion</tspan>
   <tspan y="18.553" x="39">50%</tspan>
   <tspan y="37.105" x="39">75%</tspan>
   <tspan y="55.658" x="39">90%</tspan>
   <tspan y="74.21" x="39">95%</tspan>
  </text>
  <line y2="120.36" x1="425.11" x2="455.54" stroke="#29AAE2" stroke-linecap="round" y1="120.36" stroke-width="2"/>
  <line y2="138.91" x1="425.11" x2="455.54" stroke="#ED1C24" stroke-linecap="round" y1="138.91" stroke-width="2"/>
  <line y2="157.47" x1="425.11" x2="455.54" stroke="#8D5CA6" stroke-linecap="round" y1="157.47" stroke-width="2"/>
  <line y2="176.02" x1="425.11" x2="455.54" stroke="#00A651" stroke-linecap="round" y1="176.02" stroke-width="2"/> </g>
</svg>